{
  "accessors": [
    {
      "name": "Group53757_1_0_positions",
      "componentType": 5126,
      "count": 10812,
      "min": [
        -20.907255172729492,
        -62.88214874267578,
        -36.861026763916016
      ],
      "max": [
        40.210750579833984,
        54.62322998046875,
        39.519386291503906
      ],
      "type": "VEC3",
      "bufferView": 0,
      "byteOffset": 0
    },
    {
      "name": "Group53757_1_0_texcoords",
      "componentType": 5126,
      "count": 10812,
      "min": [
        0.03928999975323677,
        0.05928000062704086
      ],
      "max": [
        0.9765300154685974,
        0.9648399949073792
      ],
      "type": "VEC2",
      "bufferView": 1,
      "byteOffset": 0
    },
    {
      "name": "Group53757_1_0_indices",
      "componentType": 5123,
      "count": 62322,
      "min": [
        0
      ],
      "max": [
        10811
      ],
      "type": "SCALAR",
      "bufferView": 2,
      "byteOffset": 0
    }
  ],
  "asset": {
    "generator": "obj2gltf",
    "version": "2.0"
  },
  "buffers": [
    {
      "name": "newsmall 256",
      "byteLength": 537548,
      "uri": "data:application/octet-stream;base64,"
    }
  ],
  "bufferViews": [
    {
      "name": "bufferView_0",
      "buffer": 0,
      "byteLength": 129744,
      "byteOffset": 0,
      "byteStride": 12,
      "target": 34962
    },
    {
      "name": "bufferView_1",
      "buffer": 0,
      "byteLength": 86496,
      "byteOffset": 129744,
      "byteStride": 8,
      "target": 34962
    },
    {
      "name": "bufferView_2",
      "buffer": 0,
      "byteLength": 124644,
      "byteOffset": 216240,
      "target": 34963
    },
    {
      "buffer": 0,
      "byteOffset": 340884,
      "byteLength": 196664
    }
  ],
  "images": [
    {
      "name": "newsmall 256",
      "mimeType": "image/bmp",
      "bufferView": 3
    }
  ],
  "materials": [
    {
      "name": "defaultMat",
      "pbrMetallicRoughness": {
        "baseColorTexture": {
          "index": 0
        },
        "baseColorFactor": [
          1,
          1,
          1,
          1
        ],
        "metallicFactor": 0,
        "roughnessFactor": 1
      },
      "emissiveFactor": [
        0,
        0,
        0
      ],
      "alphaMode": "OPAQUE",
      "doubleSided": false
    }
  ],
  "meshes": [
    {
      "name": "Group53757_1",
      "primitives": [
        {
          "attributes": {
            "POSITION": 0,
            "TEXCOORD_0": 1
          },
          "indices": 2,
          "material": 0,
          "mode": 4
        }
      ]
    }
  ],
  "nodes": [
    {
      "name": "Group53757",
      "mesh": 0
    }
  ],
  "samplers": [
    {
      "wrapS": 10497,
      "wrapT": 10497
    }
  ],
  "scene": 0,
  "scenes": [
    {
      "nodes": [
        0
      ]
    }
  ],
  "textures": [
    {
      "name": "newsmall 256",
      "sampler": 0,
      "source": 0
    }
  ]
}
