{
  "accessors": [
    {
      "name": "Group53757_1_0_positions",
      "componentType": 5126,
      "count": 10812,
      "min": [
        -30.533599853515625,
        -0.009100000374019146,
        -45.28990173339844
      ],
      "max": [
        30.584400177001953,
        117.49629974365234,
        31.090499877929688
      ],
      "type": "VEC3",
      "bufferView": 0,
      "byteOffset": 0
    },
    {
      "name": "Group53757_1_0_normals",
      "componentType": 5126,
      "count": 10812,
      "min": [
        -0.999978244304657,
        -0.9999997615814209,
        -0.9999946355819702
      ],
      "max": [
        0.9999549388885498,
        0.999939501285553,
        0.9998030066490173
      ],
      "type": "VEC3",
      "bufferView": 1,
      "byteOffset": 0
    },
    {
      "name": "Group53757_1_0_texcoords",
      "componentType": 5126,
      "count": 10812,
      "min": [
        0.03929999843239784,
        0.059300001710653305
      ],
      "max": [
        0.9764999747276306,
        0.9648000001907349
      ],
      "type": "VEC2",
      "bufferView": 2,
      "byteOffset": 0
    },
    {
      "name": "Group53757_1_0_indices",
      "componentType": 5123,
      "count": 62322,
      "min": [
        0
      ],
      "max": [
        10811
      ],
      "type": "SCALAR",
      "bufferView": 3,
      "byteOffset": 0
    }
  ],
  "asset": {
    "generator": "obj2gltf",
    "version": "2.0"
  },
  "buffers": [
    {
      "name": "newsmall256",
      "byteLength": 509456,
      "uri": "data:application/octet-stream;base64,"
    }
  ],
  "bufferViews": [
    {
      "name": "bufferView_0",
      "buffer": 0,
      "byteLength": 129744,
      "byteOffset": 0,
      "byteStride": 12,
      "target": 34962
    },
    {
      "name": "bufferView_1",
      "buffer": 0,
      "byteLength": 129744,
      "byteOffset": 129744,
      "byteStride": 12,
      "target": 34962
    },
    {
      "name": "bufferView_2",
      "buffer": 0,
      "byteLength": 86496,
      "byteOffset": 259488,
      "byteStride": 8,
      "target": 34962
    },
    {
      "name": "bufferView_3",
      "buffer": 0,
      "byteLength": 124644,
      "byteOffset": 345984,
      "target": 34963
    },
    {
      "buffer": 0,
      "byteOffset": 470628,
      "byteLength": 38825
    }
  ],
  "images": [
    {
      "name": "newsmall256",
      "mimeType": "image/jpeg",
      "bufferView": 4
    }
  ],
  "materials": [
    {
      "name": "Material__25",
      "pbrMetallicRoughness": {
        "baseColorTexture": {
          "index": 0
        },
        "baseColorFactor": [
          1,
          1,
          1,
          1
        ],
        "metallicFactor": 0,
        "roughnessFactor": 0.99
      },
      "emissiveFactor": [
        0,
        0,
        0
      ],
      "alphaMode": "OPAQUE",
      "doubleSided": false
    }
  ],
  "meshes": [
    {
      "name": "Group53757_1",
      "primitives": [
        {
          "attributes": {
            "POSITION": 0,
            "NORMAL": 1,
            "TEXCOORD_0": 2
          },
          "indices": 3,
          "material": 0,
          "mode": 4
        }
      ]
    }
  ],
  "nodes": [
    {
      "name": "Group53757",
      "mesh": 0
    }
  ],
  "samplers": [
    {
      "wrapS": 10497,
      "wrapT": 10497
    }
  ],
  "scene": 0,
  "scenes": [
    {
      "nodes": [
        0
      ]
    }
  ],
  "textures": [
    {
      "name": "newsmall256",
      "sampler": 0,
      "source": 0
    }
  ]
}
